<mxfile host="app.diagrams.net" agent="Mozilla/5.0 (Windows NT 10.0; Win64; x64) AppleWebKit/537.36 (KHTML, like Gecko) Chrome/129.0.0.0 Safari/537.36 Edg/129.0.0.0" version="24.7.17">
  <diagram name="Page-1" id="3nXBSNcUew9K6hn_OaRK">
    <mxGraphModel dx="906" dy="493" grid="1" gridSize="10" guides="1" tooltips="1" connect="1" arrows="1" fold="1" page="1" pageScale="1" pageWidth="850" pageHeight="1100" math="0" shadow="0">
      <root>
        <mxCell id="0" />
        <mxCell id="1" parent="0" />
        <mxCell id="HVbI2L4Hs5HE3-MBSkn4-12" value="Orders" style="shape=table;startSize=30;container=1;collapsible=0;childLayout=tableLayout;" parent="1" vertex="1">
          <mxGeometry x="500" y="377" width="280" height="225" as="geometry" />
        </mxCell>
        <mxCell id="HVbI2L4Hs5HE3-MBSkn4-13" value="" style="shape=tableRow;horizontal=0;startSize=0;swimlaneHead=0;swimlaneBody=0;strokeColor=inherit;top=0;left=0;bottom=0;right=0;collapsible=0;dropTarget=0;fillColor=none;points=[[0,0.5],[1,0.5]];portConstraint=eastwest;" parent="HVbI2L4Hs5HE3-MBSkn4-12" vertex="1">
          <mxGeometry y="30" width="280" height="43" as="geometry" />
        </mxCell>
        <mxCell id="pJuaIllPGdODmSYGomI3-6" value="PK" style="shape=partialRectangle;html=1;whiteSpace=wrap;connectable=0;strokeColor=inherit;overflow=hidden;fillColor=none;top=0;left=0;bottom=0;right=0;pointerEvents=1;" parent="HVbI2L4Hs5HE3-MBSkn4-13" vertex="1">
          <mxGeometry width="40" height="43" as="geometry">
            <mxRectangle width="40" height="43" as="alternateBounds" />
          </mxGeometry>
        </mxCell>
        <mxCell id="HVbI2L4Hs5HE3-MBSkn4-14" value="&lt;b&gt;Order_ID&lt;/b&gt;&lt;span style=&quot;font-weight: 700;&quot;&gt;&amp;nbsp;- INT AUTO_INCREMENT&lt;/span&gt;" style="shape=partialRectangle;html=1;whiteSpace=wrap;connectable=0;strokeColor=inherit;overflow=hidden;fillColor=none;top=0;left=0;bottom=0;right=0;pointerEvents=1;" parent="HVbI2L4Hs5HE3-MBSkn4-13" vertex="1">
          <mxGeometry x="40" width="240" height="43" as="geometry">
            <mxRectangle width="240" height="43" as="alternateBounds" />
          </mxGeometry>
        </mxCell>
        <mxCell id="HVbI2L4Hs5HE3-MBSkn4-15" value="" style="shape=tableRow;horizontal=0;startSize=0;swimlaneHead=0;swimlaneBody=0;strokeColor=inherit;top=0;left=0;bottom=0;right=0;collapsible=0;dropTarget=0;fillColor=none;points=[[0,0.5],[1,0.5]];portConstraint=eastwest;" parent="HVbI2L4Hs5HE3-MBSkn4-12" vertex="1">
          <mxGeometry y="73" width="280" height="152" as="geometry" />
        </mxCell>
        <mxCell id="pJuaIllPGdODmSYGomI3-7" style="shape=partialRectangle;html=1;whiteSpace=wrap;connectable=0;strokeColor=inherit;overflow=hidden;fillColor=none;top=0;left=0;bottom=0;right=0;pointerEvents=1;" parent="HVbI2L4Hs5HE3-MBSkn4-15" vertex="1">
          <mxGeometry width="40" height="152" as="geometry">
            <mxRectangle width="40" height="152" as="alternateBounds" />
          </mxGeometry>
        </mxCell>
        <mxCell id="HVbI2L4Hs5HE3-MBSkn4-16" value="&lt;div&gt;&lt;b&gt;Customer_ID&lt;/b&gt; &lt;b&gt;(FK) - INT NOT NULL&lt;/b&gt;&lt;/div&gt;&lt;div&gt;&lt;br&gt;&lt;/div&gt;&lt;div&gt;&lt;b&gt;Employee_ID (FK) - INT NOT NULL&lt;/b&gt;&lt;/div&gt;&lt;div&gt;&lt;br&gt;&lt;/div&gt;Amount_Paid - DECIMAL (5,2)&lt;div&gt;&lt;br&gt;&lt;div&gt;Payment_Method - VARCHAR(25)&lt;/div&gt;&lt;/div&gt;" style="shape=partialRectangle;html=1;whiteSpace=wrap;connectable=0;strokeColor=inherit;overflow=hidden;fillColor=none;top=0;left=0;bottom=0;right=0;pointerEvents=1;" parent="HVbI2L4Hs5HE3-MBSkn4-15" vertex="1">
          <mxGeometry x="40" width="240" height="152" as="geometry">
            <mxRectangle width="240" height="152" as="alternateBounds" />
          </mxGeometry>
        </mxCell>
        <mxCell id="pJuaIllPGdODmSYGomI3-10" value="Customers" style="shape=table;startSize=30;container=1;collapsible=0;childLayout=tableLayout;" parent="1" vertex="1">
          <mxGeometry x="120" y="380" width="290" height="219" as="geometry" />
        </mxCell>
        <mxCell id="pJuaIllPGdODmSYGomI3-11" value="" style="shape=tableRow;horizontal=0;startSize=0;swimlaneHead=0;swimlaneBody=0;strokeColor=inherit;top=0;left=0;bottom=0;right=0;collapsible=0;dropTarget=0;fillColor=none;points=[[0,0.5],[1,0.5]];portConstraint=eastwest;" parent="pJuaIllPGdODmSYGomI3-10" vertex="1">
          <mxGeometry y="30" width="290" height="40" as="geometry" />
        </mxCell>
        <mxCell id="pJuaIllPGdODmSYGomI3-12" value="&lt;b&gt;PK&lt;/b&gt;" style="shape=partialRectangle;html=1;whiteSpace=wrap;connectable=0;strokeColor=inherit;overflow=hidden;fillColor=none;top=0;left=0;bottom=0;right=0;pointerEvents=1;" parent="pJuaIllPGdODmSYGomI3-11" vertex="1">
          <mxGeometry width="37" height="40" as="geometry">
            <mxRectangle width="37" height="40" as="alternateBounds" />
          </mxGeometry>
        </mxCell>
        <mxCell id="pJuaIllPGdODmSYGomI3-13" value="&lt;b&gt;Customer_ID&lt;/b&gt;&lt;span style=&quot;font-weight: 700;&quot;&gt;&amp;nbsp;- INT AUTO_INCREMENT&lt;/span&gt;" style="shape=partialRectangle;html=1;whiteSpace=wrap;connectable=0;strokeColor=inherit;overflow=hidden;fillColor=none;top=0;left=0;bottom=0;right=0;pointerEvents=1;" parent="pJuaIllPGdODmSYGomI3-11" vertex="1">
          <mxGeometry x="37" width="253" height="40" as="geometry">
            <mxRectangle width="253" height="40" as="alternateBounds" />
          </mxGeometry>
        </mxCell>
        <mxCell id="pJuaIllPGdODmSYGomI3-14" value="" style="shape=tableRow;horizontal=0;startSize=0;swimlaneHead=0;swimlaneBody=0;strokeColor=inherit;top=0;left=0;bottom=0;right=0;collapsible=0;dropTarget=0;fillColor=none;points=[[0,0.5],[1,0.5]];portConstraint=eastwest;" parent="pJuaIllPGdODmSYGomI3-10" vertex="1">
          <mxGeometry y="70" width="290" height="149" as="geometry" />
        </mxCell>
        <mxCell id="pJuaIllPGdODmSYGomI3-15" value="" style="shape=partialRectangle;html=1;whiteSpace=wrap;connectable=0;strokeColor=inherit;overflow=hidden;fillColor=none;top=0;left=0;bottom=0;right=0;pointerEvents=1;" parent="pJuaIllPGdODmSYGomI3-14" vertex="1">
          <mxGeometry width="37" height="149" as="geometry">
            <mxRectangle width="37" height="149" as="alternateBounds" />
          </mxGeometry>
        </mxCell>
        <mxCell id="pJuaIllPGdODmSYGomI3-16" value="&lt;div&gt;&lt;span style=&quot;background-color: initial;&quot;&gt;First_Name - VARCHAR (50) NOT NULL&lt;/span&gt;&lt;br&gt;&lt;/div&gt;&lt;div&gt;&lt;span style=&quot;background-color: initial;&quot;&gt;&lt;br&gt;&lt;/span&gt;&lt;/div&gt;&lt;div&gt;Last_Name -&amp;nbsp;&lt;span style=&quot;background-color: initial;&quot;&gt;VARCHAR (50) NOT NULL&lt;/span&gt;&lt;/div&gt;&lt;div&gt;&lt;br&gt;&lt;/div&gt;&lt;div&gt;Phone_Number -&amp;nbsp;&lt;span style=&quot;background-color: initial;&quot;&gt;VARCHAR (50) NOT NULL&lt;/span&gt;&lt;/div&gt;&lt;div&gt;&lt;br&gt;&lt;/div&gt;&lt;div&gt;Email_Address- VARCHAR (50)&lt;/div&gt;" style="shape=partialRectangle;html=1;whiteSpace=wrap;connectable=0;strokeColor=inherit;overflow=hidden;fillColor=none;top=0;left=0;bottom=0;right=0;pointerEvents=1;" parent="pJuaIllPGdODmSYGomI3-14" vertex="1">
          <mxGeometry x="37" width="253" height="149" as="geometry">
            <mxRectangle width="253" height="149" as="alternateBounds" />
          </mxGeometry>
        </mxCell>
        <mxCell id="pJuaIllPGdODmSYGomI3-17" value="Employees" style="shape=table;startSize=30;container=1;collapsible=0;childLayout=tableLayout;" parent="1" vertex="1">
          <mxGeometry x="270" y="650" width="290" height="277" as="geometry" />
        </mxCell>
        <mxCell id="pJuaIllPGdODmSYGomI3-18" value="" style="shape=tableRow;horizontal=0;startSize=0;swimlaneHead=0;swimlaneBody=0;strokeColor=inherit;top=0;left=0;bottom=0;right=0;collapsible=0;dropTarget=0;fillColor=none;points=[[0,0.5],[1,0.5]];portConstraint=eastwest;" parent="pJuaIllPGdODmSYGomI3-17" vertex="1">
          <mxGeometry y="30" width="290" height="40" as="geometry" />
        </mxCell>
        <mxCell id="pJuaIllPGdODmSYGomI3-19" value="&lt;b&gt;PK&lt;/b&gt;" style="shape=partialRectangle;html=1;whiteSpace=wrap;connectable=0;strokeColor=inherit;overflow=hidden;fillColor=none;top=0;left=0;bottom=0;right=0;pointerEvents=1;" parent="pJuaIllPGdODmSYGomI3-18" vertex="1">
          <mxGeometry width="48" height="40" as="geometry">
            <mxRectangle width="48" height="40" as="alternateBounds" />
          </mxGeometry>
        </mxCell>
        <mxCell id="pJuaIllPGdODmSYGomI3-20" value="&lt;b&gt;Employee_ID&lt;/b&gt;&lt;span style=&quot;font-weight: 700;&quot;&gt;&amp;nbsp;- INT AUTO_INCREMENT&lt;/span&gt;" style="shape=partialRectangle;html=1;whiteSpace=wrap;connectable=0;strokeColor=inherit;overflow=hidden;fillColor=none;top=0;left=0;bottom=0;right=0;pointerEvents=1;" parent="pJuaIllPGdODmSYGomI3-18" vertex="1">
          <mxGeometry x="48" width="242" height="40" as="geometry">
            <mxRectangle width="242" height="40" as="alternateBounds" />
          </mxGeometry>
        </mxCell>
        <mxCell id="pJuaIllPGdODmSYGomI3-21" value="" style="shape=tableRow;horizontal=0;startSize=0;swimlaneHead=0;swimlaneBody=0;strokeColor=inherit;top=0;left=0;bottom=0;right=0;collapsible=0;dropTarget=0;fillColor=none;points=[[0,0.5],[1,0.5]];portConstraint=eastwest;" parent="pJuaIllPGdODmSYGomI3-17" vertex="1">
          <mxGeometry y="70" width="290" height="207" as="geometry" />
        </mxCell>
        <mxCell id="pJuaIllPGdODmSYGomI3-22" value="" style="shape=partialRectangle;html=1;whiteSpace=wrap;connectable=0;strokeColor=inherit;overflow=hidden;fillColor=none;top=0;left=0;bottom=0;right=0;pointerEvents=1;" parent="pJuaIllPGdODmSYGomI3-21" vertex="1">
          <mxGeometry width="48" height="207" as="geometry">
            <mxRectangle width="48" height="207" as="alternateBounds" />
          </mxGeometry>
        </mxCell>
        <mxCell id="pJuaIllPGdODmSYGomI3-23" value="&lt;div&gt;Title - VARCHAR (25)&amp;nbsp;&lt;span style=&quot;background-color: initial;&quot;&gt;NOT NULL&lt;/span&gt;&lt;/div&gt;&lt;div&gt;&lt;br&gt;&lt;/div&gt;First_Name - VARCHAR(50) NOT NULL&lt;div&gt;&lt;br&gt;&lt;/div&gt;&lt;div&gt;Last_Name&amp;nbsp;&lt;span style=&quot;background-color: initial;&quot;&gt;- VARCHAR(50) NOT NULL&lt;/span&gt;&lt;/div&gt;&lt;div&gt;&lt;br&gt;&lt;/div&gt;&lt;div&gt;Phone_Number&amp;nbsp;&lt;span style=&quot;background-color: initial;&quot;&gt;- VARCHAR(50) NOT NULL&lt;/span&gt;&lt;/div&gt;&lt;div&gt;&lt;br&gt;&lt;/div&gt;&lt;div&gt;Email_Address&lt;span style=&quot;background-color: initial;&quot;&gt;&amp;nbsp;&lt;/span&gt;&lt;span style=&quot;background-color: initial;&quot;&gt;- VARCHAR(50) NOT NULL&lt;/span&gt;&lt;/div&gt;&lt;div&gt;&lt;br&gt;&lt;/div&gt;&lt;div&gt;Hire_Date&lt;span style=&quot;background-color: initial;&quot;&gt;&amp;nbsp;&lt;/span&gt;&lt;span style=&quot;background-color: initial;&quot;&gt;- DATE NOT NULL&lt;/span&gt;&lt;/div&gt;&lt;div&gt;&lt;br&gt;&lt;/div&gt;&lt;div&gt;Monthly_Salary&amp;nbsp;&lt;span style=&quot;background-color: initial;&quot;&gt;- DECIMAL (7,2) NOT NULL&lt;/span&gt;&lt;/div&gt;" style="shape=partialRectangle;html=1;whiteSpace=wrap;connectable=0;strokeColor=inherit;overflow=hidden;fillColor=none;top=0;left=0;bottom=0;right=0;pointerEvents=1;" parent="pJuaIllPGdODmSYGomI3-21" vertex="1">
          <mxGeometry x="48" width="242" height="207" as="geometry">
            <mxRectangle width="242" height="207" as="alternateBounds" />
          </mxGeometry>
        </mxCell>
        <mxCell id="pJuaIllPGdODmSYGomI3-24" value="Prodcuts" style="shape=table;startSize=30;container=1;collapsible=0;childLayout=tableLayout;" parent="1" vertex="1">
          <mxGeometry x="120" y="60" width="289" height="223" as="geometry" />
        </mxCell>
        <mxCell id="pJuaIllPGdODmSYGomI3-25" value="" style="shape=tableRow;horizontal=0;startSize=0;swimlaneHead=0;swimlaneBody=0;strokeColor=inherit;top=0;left=0;bottom=0;right=0;collapsible=0;dropTarget=0;fillColor=none;points=[[0,0.5],[1,0.5]];portConstraint=eastwest;" parent="pJuaIllPGdODmSYGomI3-24" vertex="1">
          <mxGeometry y="30" width="289" height="40" as="geometry" />
        </mxCell>
        <mxCell id="pJuaIllPGdODmSYGomI3-26" value="PK" style="shape=partialRectangle;html=1;whiteSpace=wrap;connectable=0;strokeColor=inherit;overflow=hidden;fillColor=none;top=0;left=0;bottom=0;right=0;pointerEvents=1;fontStyle=1" parent="pJuaIllPGdODmSYGomI3-25" vertex="1">
          <mxGeometry width="39" height="40" as="geometry">
            <mxRectangle width="39" height="40" as="alternateBounds" />
          </mxGeometry>
        </mxCell>
        <mxCell id="pJuaIllPGdODmSYGomI3-27" value="Product_ID - INT AUTO_INCREMENT" style="shape=partialRectangle;html=1;whiteSpace=wrap;connectable=0;strokeColor=inherit;overflow=hidden;fillColor=none;top=0;left=0;bottom=0;right=0;pointerEvents=1;fontStyle=1" parent="pJuaIllPGdODmSYGomI3-25" vertex="1">
          <mxGeometry x="39" width="250" height="40" as="geometry">
            <mxRectangle width="250" height="40" as="alternateBounds" />
          </mxGeometry>
        </mxCell>
        <mxCell id="pJuaIllPGdODmSYGomI3-28" value="" style="shape=tableRow;horizontal=0;startSize=0;swimlaneHead=0;swimlaneBody=0;strokeColor=inherit;top=0;left=0;bottom=0;right=0;collapsible=0;dropTarget=0;fillColor=none;points=[[0,0.5],[1,0.5]];portConstraint=eastwest;" parent="pJuaIllPGdODmSYGomI3-24" vertex="1">
          <mxGeometry y="70" width="289" height="153" as="geometry" />
        </mxCell>
        <mxCell id="pJuaIllPGdODmSYGomI3-29" value="" style="shape=partialRectangle;html=1;whiteSpace=wrap;connectable=0;strokeColor=inherit;overflow=hidden;fillColor=none;top=0;left=0;bottom=0;right=0;pointerEvents=1;" parent="pJuaIllPGdODmSYGomI3-28" vertex="1">
          <mxGeometry width="39" height="153" as="geometry">
            <mxRectangle width="39" height="153" as="alternateBounds" />
          </mxGeometry>
        </mxCell>
        <mxCell id="pJuaIllPGdODmSYGomI3-30" value="&lt;div&gt;&lt;span style=&quot;background-color: initial;&quot;&gt;Product_Name - VARCHAR (100) NOT NULL&lt;br&gt;&lt;/span&gt;&lt;br&gt;&lt;/div&gt;&lt;div&gt;Type - VARCHAR (50)&amp;nbsp;&lt;/div&gt;&lt;div&gt;&lt;div&gt;&lt;br&gt;&lt;/div&gt;&lt;div&gt;Quantity - INT NOT NULL&lt;/div&gt;&lt;div&gt;&lt;br&gt;&lt;/div&gt;&lt;div&gt;Restock_Date - DATE NOT NULL&lt;/div&gt;&lt;/div&gt;" style="shape=partialRectangle;html=1;whiteSpace=wrap;connectable=0;strokeColor=inherit;overflow=hidden;fillColor=none;top=0;left=0;bottom=0;right=0;pointerEvents=1;" parent="pJuaIllPGdODmSYGomI3-28" vertex="1">
          <mxGeometry x="39" width="250" height="153" as="geometry">
            <mxRectangle width="250" height="153" as="alternateBounds" />
          </mxGeometry>
        </mxCell>
        <mxCell id="pJuaIllPGdODmSYGomI3-31" value="Reservations" style="shape=table;startSize=30;container=1;collapsible=0;childLayout=tableLayout;" parent="1" vertex="1">
          <mxGeometry x="480" y="91.5" width="280" height="180" as="geometry" />
        </mxCell>
        <mxCell id="pJuaIllPGdODmSYGomI3-32" value="" style="shape=tableRow;horizontal=0;startSize=0;swimlaneHead=0;swimlaneBody=0;strokeColor=inherit;top=0;left=0;bottom=0;right=0;collapsible=0;dropTarget=0;fillColor=none;points=[[0,0.5],[1,0.5]];portConstraint=eastwest;" parent="pJuaIllPGdODmSYGomI3-31" vertex="1">
          <mxGeometry y="30" width="280" height="32" as="geometry" />
        </mxCell>
        <mxCell id="pJuaIllPGdODmSYGomI3-33" value="&lt;b&gt;PK&lt;/b&gt;" style="shape=partialRectangle;html=1;whiteSpace=wrap;connectable=0;strokeColor=inherit;overflow=hidden;fillColor=none;top=0;left=0;bottom=0;right=0;pointerEvents=1;" parent="pJuaIllPGdODmSYGomI3-32" vertex="1">
          <mxGeometry width="35" height="32" as="geometry">
            <mxRectangle width="35" height="32" as="alternateBounds" />
          </mxGeometry>
        </mxCell>
        <mxCell id="pJuaIllPGdODmSYGomI3-34" value="&lt;b&gt;Reservation_ID - INT&amp;nbsp;&lt;/b&gt;&lt;span style=&quot;font-weight: 700;&quot;&gt;AUTO_INCREMENT&lt;/span&gt;" style="shape=partialRectangle;html=1;whiteSpace=wrap;connectable=0;strokeColor=inherit;overflow=hidden;fillColor=none;top=0;left=0;bottom=0;right=0;pointerEvents=1;" parent="pJuaIllPGdODmSYGomI3-32" vertex="1">
          <mxGeometry x="35" width="245" height="32" as="geometry">
            <mxRectangle width="245" height="32" as="alternateBounds" />
          </mxGeometry>
        </mxCell>
        <mxCell id="pJuaIllPGdODmSYGomI3-35" value="" style="shape=tableRow;horizontal=0;startSize=0;swimlaneHead=0;swimlaneBody=0;strokeColor=inherit;top=0;left=0;bottom=0;right=0;collapsible=0;dropTarget=0;fillColor=none;points=[[0,0.5],[1,0.5]];portConstraint=eastwest;" parent="pJuaIllPGdODmSYGomI3-31" vertex="1">
          <mxGeometry y="62" width="280" height="118" as="geometry" />
        </mxCell>
        <mxCell id="pJuaIllPGdODmSYGomI3-36" value="" style="shape=partialRectangle;html=1;whiteSpace=wrap;connectable=0;strokeColor=inherit;overflow=hidden;fillColor=none;top=0;left=0;bottom=0;right=0;pointerEvents=1;" parent="pJuaIllPGdODmSYGomI3-35" vertex="1">
          <mxGeometry width="35" height="118" as="geometry">
            <mxRectangle width="35" height="118" as="alternateBounds" />
          </mxGeometry>
        </mxCell>
        <mxCell id="pJuaIllPGdODmSYGomI3-37" value="&lt;div&gt;&lt;b&gt;Order_ID&amp;nbsp;&lt;/b&gt;&lt;b style=&quot;background-color: initial;&quot;&gt;(FK) - INT NOT NULL&lt;/b&gt;&lt;br&gt;&lt;/div&gt;&lt;div&gt;&lt;br&gt;&lt;/div&gt;Table_Number - INT&lt;div&gt;&lt;br&gt;&lt;/div&gt;&lt;div&gt;Date_Time - DATETIME NOT NULL&lt;/div&gt;" style="shape=partialRectangle;html=1;whiteSpace=wrap;connectable=0;strokeColor=inherit;overflow=hidden;fillColor=none;top=0;left=0;bottom=0;right=0;pointerEvents=1;" parent="pJuaIllPGdODmSYGomI3-35" vertex="1">
          <mxGeometry x="35" width="245" height="118" as="geometry">
            <mxRectangle width="245" height="118" as="alternateBounds" />
          </mxGeometry>
        </mxCell>
        <mxCell id="pJuaIllPGdODmSYGomI3-54" value="" style="edgeStyle=entityRelationEdgeStyle;fontSize=12;html=1;endArrow=ERoneToMany;startArrow=ERmandOne;rounded=0;exitX=1;exitY=0.5;exitDx=0;exitDy=0;" parent="1" source="HVbI2L4Hs5HE3-MBSkn4-13" edge="1">
          <mxGeometry width="100" height="100" relative="1" as="geometry">
            <mxPoint x="580" y="640" as="sourcePoint" />
            <mxPoint x="480" y="200" as="targetPoint" />
          </mxGeometry>
        </mxCell>
        <mxCell id="pJuaIllPGdODmSYGomI3-55" value="" style="edgeStyle=entityRelationEdgeStyle;fontSize=12;html=1;endArrow=ERoneToMany;startArrow=ERmandOne;rounded=0;exitX=1;exitY=0.5;exitDx=0;exitDy=0;" parent="1" source="pJuaIllPGdODmSYGomI3-18" target="HVbI2L4Hs5HE3-MBSkn4-15" edge="1">
          <mxGeometry width="100" height="100" relative="1" as="geometry">
            <mxPoint x="580" y="640" as="sourcePoint" />
            <mxPoint x="680" y="540" as="targetPoint" />
          </mxGeometry>
        </mxCell>
        <mxCell id="pJuaIllPGdODmSYGomI3-56" value="" style="edgeStyle=entityRelationEdgeStyle;fontSize=12;html=1;endArrow=ERoneToMany;startArrow=ERmandOne;rounded=0;exitX=1;exitY=0.5;exitDx=0;exitDy=0;entryX=-0.009;entryY=0.091;entryDx=0;entryDy=0;entryPerimeter=0;" parent="1" source="pJuaIllPGdODmSYGomI3-11" target="HVbI2L4Hs5HE3-MBSkn4-15" edge="1">
          <mxGeometry width="100" height="100" relative="1" as="geometry">
            <mxPoint x="580" y="640" as="sourcePoint" />
            <mxPoint x="680" y="540" as="targetPoint" />
          </mxGeometry>
        </mxCell>
      </root>
    </mxGraphModel>
  </diagram>
</mxfile>
